<?xml version="1.0" encoding="utf-8"?>
<svg width="173.74365px" height="193.31848px" viewBox="0 0 173.74365 193.31848" version="1.1" xmlns:xlink="http://www.w3.org/1999/xlink" xmlns="http://www.w3.org/2000/svg">
  <defs>
    <path d="M173.744 0L173.744 0L173.744 193.318L0 193.318L0 0L173.744 0Z" id="path_1" />
    <clipPath id="clip_1">
      <use xlink:href="#path_1" clip-rule="evenodd" fill-rule="evenodd" />
    </clipPath>
  </defs>
  <g id="Group-4">
    <g id="Group-3">
      <g id="Group-2">
        <g id="logo_new" clip-path="url(#clip_1)">
          <path d="M173.744 0L173.744 0L173.744 193.318L0 193.318L0 0L173.744 0Z" id="logo_new" fill="none" stroke="none" />
          <g id="Group" transform="translate(7.4523926 10.051575)">
            <path d="M79.4628 173.215C73.9169 173.215 68.3709 171.656 63.1716 168.71C53.8129 163.337 44.4541 157.965 35.0087 152.506C28.9428 149.04 22.9636 145.574 16.8978 142.108C6.06586 135.869 0 125.471 0 112.82C0 106.667 0 100.515 0 94.4497C0 83.2717 0 72.0937 0 60.9157C0 47.7447 5.97921 37.3466 17.331 30.8478C28.5096 24.5223 39.7747 18.0234 50.6066 11.6979C54.6794 9.35831 58.6656 7.01874 62.7384 4.67916C68.111 1.55972 73.7436 0 79.4628 0C85.182 0 90.728 1.55972 96.1006 4.59251L106.586 10.6581C118.371 17.4169 130.589 24.4356 142.548 31.4543C152.946 37.5199 158.666 47.3981 158.752 59.4426C158.752 65.8548 158.752 72.267 158.752 78.5059C158.752 81.192 158.752 91.5902 158.752 91.5902C158.752 92.63 158.752 93.6698 158.752 94.7096C158.752 101.035 158.752 107.534 158.752 114.033C158.579 125.644 152.86 135.609 142.981 141.415C129.463 149.3 115.685 157.272 102.426 164.897L95.9273 168.623C90.5547 171.656 85.0954 173.215 79.4628 173.215L79.4628 173.215Z" id="Shape" fill="#B6E8DF" fill-rule="evenodd" stroke="none" />
            <g id="Layer_2-2" transform="translate(14.991699 14.75238)">
              <g id="Polys">
                <path d="M129.03 71.8121C129.03 80.9104 129.116 90.0088 129.03 99.1072C128.943 105.606 126.083 110.718 120.537 113.924C104.939 123.11 89.2548 132.121 73.5703 141.133C67.591 144.512 61.6118 144.599 55.6326 141.133C40.208 132.295 24.7834 123.369 9.44542 114.531C3.03293 110.892 0 105.259 0 97.9807C0 80.6505 0 63.3203 0 46.0767C0 38.3648 3.20624 32.7324 9.96535 28.8331C25.13 20.168 40.208 11.4163 55.286 2.66452C61.5252 -0.888173 67.6777 -0.888173 73.9169 2.66452C89.4282 11.5896 104.853 20.428 120.277 29.4397C126.083 32.8191 129.116 38.0182 129.203 44.7769C129.116 53.7887 129.03 62.8004 129.03 71.8121L129.03 71.8121L129.03 71.8121Z" id="Shape" fill="#231F20" fill-rule="evenodd" stroke="none" />
                <path d="M71.5771 125.536C71.5771 119.903 71.5771 114.618 71.5771 109.419C71.5771 99.0205 71.5771 88.709 71.5771 78.3109C71.5771 76.9245 71.7505 75.8846 73.0503 75.1048C86.4818 67.3928 99.8267 59.6809 113.172 51.969C113.518 51.7957 113.865 51.6223 114.471 51.3624C114.818 66.7863 114.471 82.1235 114.645 97.5474C114.645 99.8004 113.865 101.187 111.872 102.313C99.2202 109.505 86.6552 116.871 74.0035 124.149C73.4836 124.583 72.7037 124.929 71.5771 125.536L71.5771 125.536L71.5771 125.536Z" id="R" fill="#B6E8DF" fill-rule="evenodd" stroke="none" />
                <path d="M107.193 38.6247C93.6743 46.9432 79.8961 54.3952 66.2046 62.4538C64.9048 63.2336 63.9516 63.2336 62.7384 62.4538C49.7401 54.9151 36.6552 47.3765 23.6569 39.8379C23.137 39.4912 22.6171 39.1446 21.8372 38.5381C22.6171 38.0182 23.137 37.5849 23.6569 37.2383C36.3086 29.873 49.0469 22.5943 61.6986 15.229C63.345 14.2758 64.9048 14.0158 66.6379 14.969C80.2428 23.0275 93.8476 30.4795 107.193 38.6247L107.193 38.6247L107.193 38.6247Z" id="T" fill="#B6E8DF" fill-rule="evenodd" stroke="none" />
                <path d="M57.4524 125.536C57.4524 119.903 57.4524 114.618 57.4524 109.419C57.4524 99.0205 57.4524 88.709 57.4524 78.3109C57.4524 76.9245 57.2791 75.8846 55.9792 75.1048C42.5477 67.3928 29.2028 59.6809 15.8579 51.969C15.5113 51.7957 15.1647 51.6223 14.5581 51.3624C14.2115 66.7863 14.5581 82.1235 14.3848 97.5474C14.3848 99.8004 15.1647 101.187 17.1577 102.313C29.8094 109.505 42.3744 116.871 55.026 124.149C55.6326 124.583 56.3259 124.929 57.4524 125.536L57.4524 125.536L57.4524 125.536Z" id="L" fill="#B6E8DF" fill-rule="evenodd" stroke="none" />
              </g>
            </g>
          </g>
        </g>
      </g>
    </g>
  </g>
</svg>